
	<svg xmlns="http://www.w3.org/2000/svg" xmlns:xlink="http://www.w3.org/1999/xlink" version="1.1" width="128" height="128" viewBox="0 0 100 100">


		<defs>
			<g id="background">
<path fill="url(#background-gradient)" stroke="none" d=" M 97.45 2.65 Q 94.8 0 91.15 0 L 8.85 0 Q 5.2 0 2.65 2.65 0 5.2 0 8.85 L 0 91.15 Q 0 94.8 2.65 97.45 5.2 100 8.85 100 L 91.15 100 Q 94.8 100 97.45 97.45 100 94.8 100 91.15 L 100 8.85 Q 100 5.2 97.45 2.65 Z"/>
</g><g id="middle-1">
<path fill="#000000" fill-opacity="0.10196078431372549" stroke="none" d=" M 97.45 2.65 Q 94.85 0 91.15 0 L 8.85 0 Q 4.95 0 2.65 2.55 L 97.15 97.6 Q 100 95.05 100 91.15 L 100 8.85 Q 100 5.2 97.45 2.65 Z"/>
</g><mask id="mask">
<path fill="#FFFFFF" stroke="none" d=" M 97.45 2.65 Q 94.8 0 91.15 0 L 8.85 0 Q 5.2 0 2.65 2.65 0 5.2 0 8.85 L 0 91.15 Q 0 94.8 2.65 97.45 5.2 100 8.85 100 L 91.15 100 Q 94.8 100 97.45 97.45 100 94.8 100 91.15 L 100 8.85 Q 100 5.2 97.45 2.65 Z"/>
</mask>

	<linearGradient id="background-gradient" x1="0" y1="0" y2="1" x2="0" >
		<stop stop-color="#ff6522" offset="0%"/>
		<stop stop-color="#ffb08c" offset="100%"/>
	</linearGradient>



			<g transform="scale(3.086419607731402) translate(7.200000762939453 0.40000009536743164)" id="picture"><path d="M14.9 6H14V5c0-.6-.4-1-1-1s-1 .4-1 1v1H3.1C1.4 6 0 7.4 0 9.1v19.8C0 30.6 1.4 32 3.1 32h11.8c1.7 0 3.1-1.4 3.1-3.1V9.1C18 7.4 16.6 6 14.9 6zM16 28.9c0 .6-.5 1.1-1.1 1.1H3.1c-.6 0-1.1-.5-1.1-1.1V9.1C2 8.5 2.5 8 3.1 8h11.8c.6 0 1.1.5 1.1 1.1v19.8zm-4.8-26c-.2.2-.2.5 0 .7s.5.2.7 0c.6-.6 1.7-.6 2.3 0 .1.1.2.1.3.1s.3-.1.4-.2c.2-.2.2-.5 0-.7-1.1-.8-2.7-.8-3.7.1z M10.8 1.9c1.2-1.1 3.1-1.1 4.3 0 .1.1.2.1.3.1s.3-.1.4-.2c.2-.2.2-.5 0-.7-1.6-1.5-4.1-1.5-5.7 0-.1.2-.2.5 0 .7.2.2.5.3.7.1zM9 25c-1.1 0-2 .9-2 2s.9 2 2 2 2-.9 2-2-.9-2-2-2zm0 3c-.6 0-1-.4-1-1s.4-1 1-1 1 .4 1 1-.4 1-1 1zm-3.5-1.5h-1c-.3 0-.5.2-.5.5s.2.5.5.5h1c.3 0 .5-.2.5-.5s-.2-.5-.5-.5zm8 0h-1c-.3 0-.5.2-.5.5s.2.5.5.5h1c.3 0 .5-.2.5-.5s-.2-.5-.5-.5zm1-17.5h-11c-.3 0-.5.2-.5.5v14c0 .3.2.5.5.5h11c.3 0 .5-.2.5-.5v-14c0-.3-.2-.5-.5-.5zM14 23H4V10h10v13z"/></g>

	<linearGradient id="picture-gradient" x1="0" y1="0" y2="1" x2="0" >
		<stop stop-color="#ffffff" offset="0%"/>
		<stop stop-color="#e5eff9" offset="100%"/>
	</linearGradient>

		</defs>



			<use xlink:href="#background" fill="url(#background-gradient)" />

		<use xlink:href="#middle-1" />

			<g mask="url(#mask)">
				<g transform="
				        translate(
                                50 50
)
                            translate(0 -5)  scale(0.75) scale(-1 1)
                            translate(
                                -50 -50
)">
						<use xlink:href="#picture" fill="url(#picture-gradient)"  />
				</g>
			</g>





	</svg>
